<?xml version="1.0" encoding="UTF-8" standalone="no"?>
<!-- Created with Inkscape (http://www.inkscape.org/) -->

<svg
   xmlns:dc="http://purl.org/dc/elements/1.1/"
   xmlns:cc="http://creativecommons.org/ns#"
   xmlns:rdf="http://www.w3.org/1999/02/22-rdf-syntax-ns#"
   xmlns:svg="http://www.w3.org/2000/svg"
   xmlns="http://www.w3.org/2000/svg"
   xmlns:sodipodi="http://sodipodi.sourceforge.net/DTD/sodipodi-0.dtd"
   xmlns:inkscape="http://www.inkscape.org/namespaces/inkscape"
   width="210mm"
   height="297mm"
   id="svg2"
   version="1.1"
   inkscape:version="0.48.4 r9939"
   sodipodi:docname="Neues Dokument 1">
  <defs
     id="defs4" />
  <sodipodi:namedview
     id="base"
     pagecolor="#ffffff"
     bordercolor="#666666"
     borderopacity="1.0"
     inkscape:pageopacity="0.0"
     inkscape:pageshadow="2"
     inkscape:zoom="1.979899"
     inkscape:cx="309.24179"
     inkscape:cy="943.08151"
     inkscape:document-units="px"
     inkscape:current-layer="layer1"
     showgrid="false"
     inkscape:window-width="1600"
     inkscape:window-height="838"
     inkscape:window-x="-8"
     inkscape:window-y="-8"
     inkscape:window-maximized="1" />
  <metadata
     id="metadata7">
    <rdf:RDF>
      <cc:Work
         rdf:about="">
        <dc:format>image/svg+xml</dc:format>
        <dc:type
           rdf:resource="http://purl.org/dc/dcmitype/StillImage" />
        <dc:title></dc:title>
      </cc:Work>
    </rdf:RDF>
  </metadata>
  <g
     inkscape:label="Ebene 1"
     inkscape:groupmode="layer"
     id="layer1">
    <path
       style="font-size:40px;font-style:normal;font-variant:normal;font-weight:normal;font-stretch:normal;text-align:start;line-height:125%;letter-spacing:0px;word-spacing:0px;text-anchor:start;fill:#666666;fill-opacity:1;stroke:none;font-family:Myriad Set Pro;-inkscape-font-specification:Myriad Set Pro"
       d="m 228.38839,151.15179 -0.0937,1.8125 c 0.005,0.006 -0.005,0.0255 0,0.0312 0.78332,0.86386 1.51765,1.9634 2.1875,3.34375 l 0.71875,1.6875 c 0.11568,0.32793 0.23769,0.65604 0.34375,1 0.10608,0.34398 0.21583,0.7017 0.3125,1.0625 l 0.125,0.53125 c 0.0483,0.18041 0.0958,0.38086 0.125,0.59375 l 0.3125,1.78125 c 0.12515,1.00265 0.18686,1.9363 0.15625,2.78125 l 3,0.46875 c 0.0816,-1.22229 0.0225,-2.58581 -0.1875,-4.0625 l -0.34375,-1.75 c -0.0292,-0.21289 -0.0767,-0.41334 -0.125,-0.59375 l -0.125,-0.53125 c -0.0967,-0.3608 -0.20643,-0.71852 -0.3125,-1.0625 -0.10606,-0.34396 -0.22808,-0.67207 -0.34375,-1 l -0.6875,-1.6875 c -0.74624,-1.59782 -1.57939,-2.93032 -2.5,-4 l -2.5625,-0.40625 z"
       id="text2989"
       inkscape:connector-curvature="0" />
    <text
       xml:space="preserve"
       style="font-size:40px;font-style:normal;font-variant:normal;font-weight:normal;font-stretch:normal;text-align:start;line-height:125%;letter-spacing:0px;word-spacing:0px;text-anchor:start;fill:#000000;fill-opacity:1;stroke:none;font-family:Myriad Set Pro;-inkscape-font-specification:Myriad Set Pro"
       x="161.80753"
       y="227.39618"
       id="text2985"
       sodipodi:linespacing="125%"
       transform="matrix(0.96592583,-0.25881905,0.25881905,0.96592583,0,0)"><tspan
         sodipodi:role="line"
         id="tspan2987"
         x="161.80753"
         y="227.39618">€</tspan></text>
    <path
       style="fill:#666666;fill-opacity:1;stroke:none"
       d="m 228.39285,151.15683 -0.26785,5.58035 6.83035,-4.55357 z"
       id="path3761"
       inkscape:connector-curvature="0" />
    <path
       inkscape:connector-curvature="0"
       id="path3763"
       d="m 233.91176,167.64013 -5.45953,1.18558 6.16624,5.41906 z"
       style="fill:#000000;fill-opacity:1;stroke:none" />
    <text
       transform="matrix(0.96592583,-0.25881905,0.25881905,0.96592583,0,0)"
       sodipodi:linespacing="125%"
       id="text3775"
       y="240.67807"
       x="91.325447"
       style="font-size:40px;font-style:normal;font-variant:normal;font-weight:normal;font-stretch:normal;text-align:start;line-height:125%;letter-spacing:0px;word-spacing:0px;text-anchor:start;fill:#000000;fill-opacity:1;stroke:none;font-family:Myriad Set Pro;-inkscape-font-specification:Myriad Set Pro"
       xml:space="preserve"><tspan
         y="240.67807"
         x="91.325447"
         id="tspan3777"
         sodipodi:role="line">€</tspan></text>
    <text
       xml:space="preserve"
       style="font-size:40px;font-style:normal;font-variant:normal;font-weight:normal;font-stretch:normal;text-align:start;line-height:125%;letter-spacing:0px;word-spacing:0px;text-anchor:start;fill:#000000;fill-opacity:1;stroke:none;font-family:Myriad Set Pro;-inkscape-font-specification:Myriad Set Pro"
       x="128.64722"
       y="250.67841"
       id="text3779"
       sodipodi:linespacing="125%"
       transform="matrix(0.96592583,-0.25881905,0.25881905,0.96592583,0,0)"><tspan
         sodipodi:role="line"
         id="tspan3781"
         x="128.64722"
         y="250.67841">$</tspan></text>
    <text
       transform="matrix(0.96592583,-0.25881905,0.25881905,0.96592583,0,0)"
       sodipodi:linespacing="125%"
       id="text3783"
       y="285.88983"
       x="95.159233"
       style="font-size:40px;font-style:normal;font-variant:normal;font-weight:normal;font-stretch:normal;text-align:start;line-height:125%;letter-spacing:0px;word-spacing:0px;text-anchor:start;fill:#000000;fill-opacity:1;stroke:none;font-family:Myriad Set Pro;-inkscape-font-specification:Myriad Set Pro"
       xml:space="preserve"><tspan
         y="285.88983"
         x="95.159233"
         id="tspan3785"
         sodipodi:role="line">£</tspan></text>
    <text
       xml:space="preserve"
       style="font-size:40px;font-style:normal;font-variant:normal;font-weight:normal;font-stretch:normal;text-align:start;line-height:125%;letter-spacing:0px;word-spacing:0px;text-anchor:start;fill:#000000;fill-opacity:1;stroke:none;font-family:Myriad Set Pro;-inkscape-font-specification:Myriad Set Pro"
       x="128.57808"
       y="294.84439"
       id="text3787"
       sodipodi:linespacing="125%"
       transform="matrix(0.96592583,-0.25881905,0.25881905,0.96592583,0,0)"><tspan
         sodipodi:role="line"
         id="tspan3789"
         x="128.57808"
         y="294.84439">¥</tspan></text>
    <rect
       style="fill:#3399cc;fill-opacity:1;stroke:none"
       id="rect3791"
       width="51.07143"
       height="51.07143"
       x="329.64285"
       y="61.647892" />
    <text
       xml:space="preserve"
       style="font-size:59.55171585px;font-style:normal;font-variant:normal;font-weight:normal;font-stretch:normal;text-align:start;line-height:125%;letter-spacing:0px;word-spacing:0px;text-anchor:start;fill:#ffffff;fill-opacity:1;stroke:none;font-family:Myriad Set Pro;-inkscape-font-specification:Myriad Set Pro"
       x="300.85733"
       y="182.03819"
       id="text3793"
       sodipodi:linespacing="125%"
       transform="matrix(0.96592583,-0.25881905,0.25881905,0.96592583,0,0)"><tspan
         sodipodi:role="line"
         id="tspan3795"
         x="300.85733"
         y="182.03819">€</tspan></text>
    <text
       transform="matrix(0.96592583,-0.25881905,0.25881905,0.96592583,0,0)"
       sodipodi:linespacing="125%"
       id="text3797"
       y="208.94452"
       x="293.53693"
       style="font-size:42.01964569px;font-style:normal;font-variant:normal;font-weight:normal;font-stretch:normal;text-align:start;line-height:125%;letter-spacing:0px;word-spacing:0px;text-anchor:start;fill:#ffffff;fill-opacity:1;stroke:none;font-family:Myriad Set Pro;-inkscape-font-specification:Myriad Set Pro"
       xml:space="preserve"><tspan
         y="208.94452"
         x="293.53693"
         id="tspan3799"
         sodipodi:role="line">$</tspan></text>
    <text
       xml:space="preserve"
       style="font-size:40px;font-style:normal;font-variant:normal;font-weight:normal;font-stretch:normal;text-align:start;line-height:125%;letter-spacing:0px;word-spacing:0px;text-anchor:start;fill:#ffffff;fill-opacity:1;stroke:none;font-family:Myriad Set Pro;-inkscape-font-specification:Myriad Set Pro"
       x="332.15213"
       y="179.68056"
       id="text3801"
       sodipodi:linespacing="125%"
       transform="matrix(0.96592583,-0.25881905,0.25881905,0.96592583,0,0)"><tspan
         sodipodi:role="line"
         id="tspan3803"
         x="332.15213"
         y="179.68056">£</tspan></text>
    <text
       transform="matrix(0.96592583,-0.25881905,0.25881905,0.96592583,0,0)"
       sodipodi:linespacing="125%"
       id="text3805"
       y="212.6196"
       x="318.47281"
       style="font-size:40px;font-style:normal;font-variant:normal;font-weight:normal;font-stretch:normal;text-align:start;line-height:125%;letter-spacing:0px;word-spacing:0px;text-anchor:start;fill:#ffffff;fill-opacity:1;stroke:none;font-family:Myriad Set Pro;-inkscape-font-specification:Myriad Set Pro"
       xml:space="preserve"><tspan
         y="212.6196"
         x="318.47281"
         id="tspan3807"
         sodipodi:role="line">¥</tspan></text>
    <rect
       y="61.647892"
       x="95.200493"
       height="51.07143"
       width="51.07143"
       id="rect3809"
       style="fill:#3399cc;fill-opacity:1;stroke:none" />
    <g
       id="g3821"
       transform="translate(-29.719699,-1.7517435)">
      <path
         style="font-size:40px;font-style:normal;font-variant:normal;font-weight:normal;font-stretch:normal;text-align:start;line-height:125%;letter-spacing:0px;word-spacing:0px;text-anchor:start;fill:#ffffff;fill-opacity:1;stroke:none;font-family:Myriad Set Pro;-inkscape-font-specification:Myriad Set Pro"
         d="m 154.95841,72.605237 -0.13267,2.566278 c 0.007,0.0085 -0.007,0.03611 0,0.04417 1.10908,1.22312 2.1488,2.779934 3.09723,4.734341 l 1.01766,2.389294 c 0.1638,0.464309 0.33654,0.928873 0.48671,1.415879 0.1502,0.487033 0.30559,0.993521 0.44246,1.504369 l 0.17699,0.752186 c 0.0684,0.255438 0.13564,0.539251 0.17698,0.840677 l 0.44246,2.522031 c 0.1772,1.419631 0.26458,2.741565 0.22124,3.937912 l 4.24763,0.663695 c 0.11553,-1.730619 0.0318,-3.661196 -0.26548,-5.752006 l -0.48671,-2.477786 c -0.0413,-0.301427 -0.10859,-0.585239 -0.17698,-0.840678 l -0.17698,-0.752185 c -0.13692,-0.510849 -0.29228,-1.017337 -0.44247,-1.504371 -0.15016,-0.487005 -0.32293,-0.951569 -0.48671,-1.415878 l -0.97341,-2.389294 c -1.05658,-2.262318 -2.23622,-4.148975 -3.5397,-5.663511 l -3.62818,-0.575201 z"
         id="path3811"
         inkscape:connector-curvature="0" />
      <text
         xml:space="preserve"
         style="font-size:56.63511658px;font-style:normal;font-variant:normal;font-weight:normal;font-stretch:normal;text-align:start;line-height:125%;letter-spacing:0px;word-spacing:0px;text-anchor:start;fill:#ffffff;fill-opacity:1;stroke:none;font-family:Myriad Set Pro;-inkscape-font-specification:Myriad Set Pro"
         x="103.02541"
         y="141.78816"
         id="text3813"
         sodipodi:linespacing="125%"
         transform="matrix(0.96592583,-0.25881905,0.25881905,0.96592583,0,0)"><tspan
           sodipodi:role="line"
           id="tspan3815"
           x="103.02541"
           y="141.78816">€</tspan></text>
      <path
         style="fill:#ffffff;fill-opacity:1;stroke:none"
         d="m 154.96472,72.612372 -0.37924,7.901096 9.67094,-6.4473 z"
         id="path3817"
         inkscape:connector-curvature="0" />
      <path
         inkscape:connector-curvature="0"
         id="path3819"
         d="m 162.77882,95.950711 -7.73002,1.678642 8.73064,7.672727 z"
         style="fill:#ffffff;fill-opacity:1;stroke:none" />
    </g>
    <rect
       style="fill:#3399cc;fill-opacity:1;stroke:none"
       id="rect3828"
       width="51.07143"
       height="51.07143"
       x="181.2063"
       y="61.647892" />
    <g
       transform="matrix(1.2021354,0,0,1.2021354,25.330571,-28.740038)"
       id="g3830">
      <text
         transform="matrix(0.96592583,-0.25881905,0.25881905,0.96592583,0,0)"
         sodipodi:linespacing="125%"
         id="text3834"
         y="141.78816"
         x="103.02541"
         style="font-size:56.63511658px;font-style:normal;font-variant:normal;font-weight:normal;font-stretch:normal;text-align:start;line-height:125%;letter-spacing:0px;word-spacing:0px;text-anchor:start;fill:#ffffff;fill-opacity:1;stroke:none;font-family:Myriad Set Pro;-inkscape-font-specification:Myriad Set Pro"
         xml:space="preserve"><tspan
           y="141.78816"
           x="103.02541"
           id="tspan3836"
           sodipodi:role="line">€</tspan></text>
      <path
         style="fill:#ffffff;fill-opacity:1;stroke:none"
         d="m 162.95739,95.950711 -7.73002,1.678642 8.73064,7.672727 z"
         id="path3840"
         inkscape:connector-curvature="0" />
    </g>
    <rect
       y="61.647892"
       x="252.42206"
       height="51.07143"
       width="51.07143"
       id="rect3842"
       style="fill:#3399cc;fill-opacity:1;stroke:none" />
    <text
       transform="matrix(0.96592582,-0.25881905,0.25881905,0.96592582,0,0)"
       sodipodi:linespacing="125%"
       id="text3846"
       y="167.67584"
       x="224.54555"
       style="font-size:68.08307648px;font-style:normal;font-variant:normal;font-weight:normal;font-stretch:normal;text-align:start;line-height:125%;letter-spacing:0px;word-spacing:0px;text-anchor:start;fill:#ffffff;fill-opacity:1;stroke:none;font-family:Myriad Set Pro;-inkscape-font-specification:Myriad Set Pro"
       xml:space="preserve"><tspan
         y="167.67584"
         x="224.54555"
         id="tspan3848"
         sodipodi:role="line">€</tspan></text>
  </g>
</svg>
